<svg width="41" height="29" viewBox="0 0 41 29" fill="none" xmlns="http://www.w3.org/2000/svg">
<path d="M17.4219 19.0213L19.3566 17.0867C19.5253 16.918 19.5255 16.6447 19.3568 16.476L18.2796 15.3988C17.8188 14.938 17.7036 14.362 18.2796 13.786L26.3438 5.72199C26.8046 5.26119 27.2654 5.26119 27.7262 5.72199L36.0207 14.0163L36.0222 14.0178C36.4725 14.4607 36.4811 14.9385 36.0208 15.3988L27.9566 23.4628L27.9565 23.4629C27.3572 24.0626 27.0451 24.1034 26.3438 23.4628L24.6908 21.8099C24.5221 21.6412 24.2486 21.6412 24.0799 21.8099L22.1493 23.7404C21.9834 23.9063 21.9796 24.1735 22.1424 24.3426C22.817 25.0435 24.4905 26.7692 25.307 27.4948C26.3438 28.4164 27.611 28.762 28.9934 27.4948C30.3729 26.2303 39.4386 17.0503 39.4767 17.0117L39.4786 17.0098C41.1071 15.3215 41.1605 14.441 39.8288 12.9866C39.8247 12.982 39.8252 12.9823 39.8208 12.978L29.1086 2.26598C27.7284 0.885696 26.6978 0.888355 25.1988 2.25953C25.1942 2.26375 25.1946 2.26317 25.1901 2.26759C25.0479 2.40983 15.5059 11.9514 14.3627 13.0948C13.2109 14.2468 13.2108 15.2836 14.3627 16.5508C15.2088 17.4815 16.3034 18.5365 16.8252 19.0311C16.9938 19.191 17.2576 19.1856 17.4219 19.0213Z" fill="#FA4B1B" stroke="#FA4B1B" stroke-width="0.288001"/>
<path d="M24.347 10.2995L22.4124 12.2341C22.2437 12.4028 22.2435 12.6761 22.4122 12.8448L23.4893 13.922C23.9501 14.3828 24.0653 14.9588 23.4893 15.5348L15.4252 23.5988C14.9644 24.0596 14.5036 24.0596 14.0428 23.5988L5.74829 15.3045L5.74673 15.303C5.2965 14.8601 5.28788 14.3823 5.7482 13.922L13.8123 5.85798L13.8124 5.85792C14.4118 5.25817 14.7239 5.21739 15.4252 5.85798L17.0781 7.51092C17.2469 7.67962 17.5204 7.67962 17.6891 7.51092L19.6196 5.58043C19.7856 5.41449 19.7893 5.14728 19.6266 4.9782C18.9519 4.2773 17.2784 2.55165 16.462 1.82597C15.4252 0.904366 14.158 0.558765 12.7755 1.82597C11.396 3.09051 2.33031 12.2705 2.29225 12.3091L2.29035 12.311C0.661861 13.9993 0.608435 14.8798 1.94011 16.3342C1.9443 16.3388 1.94378 16.3385 1.94815 16.3428L12.6603 27.0548C14.0406 28.4351 15.0712 28.4324 16.5702 27.0613C16.5748 27.0571 16.5744 27.0576 16.5788 27.0532C16.7211 26.911 26.263 17.3694 27.4062 16.226C28.558 15.074 28.5581 14.0372 27.4062 12.77C26.5602 11.8393 25.4655 10.7843 24.9438 10.2897C24.7751 10.1298 24.5113 10.1352 24.347 10.2995Z" fill="#1429EF" stroke="#1429EF" stroke-width="0.288001"/>
</svg>
